REM DIRINDEX 1\5,1\2\6,1\2\7,1\3\8,1\3\9,1\4\10,1\4\11,1\4\12
REM DIRNAME folder01,folder02,folder03,folder04,folder05,folder06,folder07,folder08,folder09,folder10,folder11,folder12
TITLE ""
FILE "EJE_DB3000_5th_5C_22.mp3" MP3
  TRACK 01 AUDIO
    TITLE "0:"
    INDEX 01 00:00:00
  TRACK 02 AUDIO
    TITLE "10:cjc026_10983"
    INDEX 01 00:00:05
  TRACK 03 AUDIO
    TITLE "0:"
    INDEX 01 00:01:34
  TRACK 04 AUDIO
    TITLE "11:cjc026_10984"
    INDEX 01 00:01:64
  TRACK 05 AUDIO
    TITLE "0:"
    INDEX 01 00:02:59
  TRACK 06 AUDIO
    TITLE "12:cjc026_10985"
    INDEX 01 00:03:10
  TRACK 07 AUDIO
    TITLE "0:"
    INDEX 01 00:04:40
  TRACK 08 AUDIO
    TITLE "10:cjc026_10986"
    INDEX 01 00:04:68
  TRACK 09 AUDIO
    TITLE "0:"
    INDEX 01 00:06:24
  TRACK 10 AUDIO
    TITLE "11:cjc026_10987"
    INDEX 01 00:06:49
  TRACK 11 AUDIO
    TITLE "0:"
    INDEX 01 00:07:49
  TRACK 12 AUDIO
    TITLE "12:cjc026_10988"
    INDEX 01 00:07:74
  TRACK 13 AUDIO
    TITLE "0:"
    INDEX 01 00:09:30
  TRACK 14 AUDIO
    TITLE "10:cjc026_10989"
    INDEX 01 00:09:57
  TRACK 15 AUDIO
    TITLE "0:"
    INDEX 01 00:10:59
  TRACK 16 AUDIO
    TITLE "11:cjc026_10990"
    INDEX 01 00:11:11
  TRACK 17 AUDIO
    TITLE "0:"
    INDEX 01 00:12:18
  TRACK 18 AUDIO
    TITLE "12:cjc026_10991"
    INDEX 01 00:12:44
  TRACK 19 AUDIO
    TITLE "0:"
    INDEX 01 00:13:47
  TRACK 20 AUDIO
    TITLE "10:cjc026_10992"
    INDEX 01 00:14:00
  TRACK 21 AUDIO
    TITLE "0:"
    INDEX 01 00:15:03
  TRACK 22 AUDIO
    TITLE "11:cjc026_10993"
    INDEX 01 00:15:28
  TRACK 23 AUDIO
    TITLE "0:"
    INDEX 01 00:16:26
  TRACK 24 AUDIO
    TITLE "12:cjc026_10994"
    INDEX 01 00:16:53
  TRACK 25 AUDIO
    TITLE "0:"
    INDEX 01 00:17:55
  TRACK 26 AUDIO
    TITLE "10:cjc026_10995"
    INDEX 01 00:18:05
  TRACK 27 AUDIO
    TITLE "0:"
    INDEX 01 00:19:20
  TRACK 28 AUDIO
    TITLE "11:cjc026_10996"
    INDEX 01 00:19:48
  TRACK 29 AUDIO
    TITLE "0:"
    INDEX 01 00:20:59
  TRACK 30 AUDIO
    TITLE "12:cjc026_10997"
    INDEX 01 00:21:09
  TRACK 31 AUDIO
    TITLE "0:"
    INDEX 01 00:22:23
  TRACK 32 AUDIO
    TITLE "10:cjc026_10998"
    INDEX 01 00:22:50
  TRACK 33 AUDIO
    TITLE "0:"
    INDEX 01 00:23:59
  TRACK 34 AUDIO
    TITLE "11:cjc026_10999"
    INDEX 01 00:24:10
  TRACK 35 AUDIO
    TITLE "0:"
    INDEX 01 00:25:21
  TRACK 36 AUDIO
    TITLE "12:cjc026_11000"
    INDEX 01 00:25:46
  TRACK 37 AUDIO
    TITLE "0:"
    INDEX 01 00:26:54
  TRACK 38 AUDIO
    TITLE "10:cjc026_11001"
    INDEX 01 00:27:06
  TRACK 39 AUDIO
    TITLE "0:"
    INDEX 01 00:28:27
  TRACK 40 AUDIO
    TITLE "11:cjc026_11002"
    INDEX 01 00:28:53
  TRACK 41 AUDIO
    TITLE "0:"
    INDEX 01 00:30:01
  TRACK 42 AUDIO
    TITLE "12:cjc026_11003"
    INDEX 01 00:30:26
  TRACK 43 AUDIO
    TITLE "0:"
    INDEX 01 00:31:47
  TRACK 44 AUDIO
    TITLE "10:cjc026_11004"
    INDEX 01 00:31:71
  TRACK 45 AUDIO
    TITLE "0:"
    INDEX 01 00:32:70
  TRACK 46 AUDIO
    TITLE "11:cjc026_11005"
    INDEX 01 00:33:21
  TRACK 47 AUDIO
    TITLE "0:"
    INDEX 01 00:34:30
  TRACK 48 AUDIO
    TITLE "12:cjc026_11006"
    INDEX 01 00:34:53
  TRACK 49 AUDIO
    TITLE "0:"
    INDEX 01 00:35:53
  TRACK 50 AUDIO
    TITLE "10:cjc026_11007"
    INDEX 01 00:36:03
  TRACK 51 AUDIO
    TITLE "0:"
    INDEX 01 00:37:03
  TRACK 52 AUDIO
    TITLE "11:cjc026_11008"
    INDEX 01 00:37:28
  TRACK 53 AUDIO
    TITLE "0:"
    INDEX 01 00:38:26
  TRACK 54 AUDIO
    TITLE "12:cjc026_11009"
    INDEX 01 00:38:51
  TRACK 55 AUDIO
    TITLE "0:"
    INDEX 01 00:39:51
  TRACK 56 AUDIO
    TITLE "10:cjc026_11010"
    INDEX 01 00:40:01
  TRACK 57 AUDIO
    TITLE "0:"
    INDEX 01 00:41:02
  TRACK 58 AUDIO
    TITLE "11:cjc026_11011"
    INDEX 01 00:41:28
  TRACK 59 AUDIO
    TITLE "0:"
    INDEX 01 00:42:25
  TRACK 60 AUDIO
    TITLE "12:cjc026_11012"
    INDEX 01 00:42:51
  TRACK 61 AUDIO
    TITLE "0:"
    INDEX 01 00:43:52
  TRACK 62 AUDIO
    TITLE "10:cjc026_11013"
    INDEX 01 00:44:03
  TRACK 63 AUDIO
    TITLE "0:"
    INDEX 01 00:44:73
  TRACK 64 AUDIO
    TITLE "11:cjc026_11014"
    INDEX 01 00:45:24
  TRACK 65 AUDIO
    TITLE "0:"
    INDEX 01 00:46:31
  TRACK 66 AUDIO
    TITLE "12:cjc026_11015"
    INDEX 01 00:46:58
  TRACK 67 AUDIO
    TITLE "0:"
    INDEX 01 00:47:54
  TRACK 68 AUDIO
    TITLE "10:cjc026_11016"
    INDEX 01 00:48:06
  TRACK 69 AUDIO
    TITLE "0:"
    INDEX 01 00:49:04
  TRACK 70 AUDIO
    TITLE "11:cjc026_11017"
    INDEX 01 00:49:29
  TRACK 71 AUDIO
    TITLE "0:"
    INDEX 01 00:50:27
  TRACK 72 AUDIO
    TITLE "12:cjc026_11018"
    INDEX 01 00:50:54
  TRACK 73 AUDIO
    TITLE "0:"
    INDEX 01 00:51:52
  TRACK 74 AUDIO
    TITLE "10:cjc026_11019"
    INDEX 01 00:52:02
  TRACK 75 AUDIO
    TITLE "0:"
    INDEX 01 00:53:74
  TRACK 76 AUDIO
    TITLE "11:cjc026_11020"
    INDEX 01 00:54:27
  TRACK 77 AUDIO
    TITLE "0:"
    INDEX 01 00:55:40
  TRACK 78 AUDIO
    TITLE "12:cjc026_11021"
    INDEX 01 00:55:67
  TRACK 79 AUDIO
    TITLE "0:"
    INDEX 01 00:57:62
